<svg width="200" height="164.31574960658392" viewBox="0 0 200 164.31574960658392" class="css-1j8o68f">
  <defs id="SvgjsDefs6057"/>
  <g id="SvgjsG6058" featurekey="Df7oLJ-0" transform="matrix(1.2048192771084338,0,0,1.2048192771084338,39.75903614457831,-10.404030673475152)" fill="#137dc5">
    <path xmlns="http://www.w3.org/2000/svg" d="M32.628212,8.6361885c-1.3350086,2.6396627-2.1030216,5.61516-2.1008072,8.7757549  c0.0030556,8.8963432,5.9801903,16.3825207,14.1322403,18.705534c3.6843719-7.3044529,2.4856567-16.4400749-3.6176529-22.5373764  C38.6159935,11.1556845,35.708065,9.5134058,32.628212,8.6361885z"/>
    <path xmlns="http://www.w3.org/2000/svg" d="M36.6367226,44.4209976c-2.2498589-8.2716866-9.7946415-14.3607674-18.7788963-14.3561306  C14.4649076,30.0661316,11.2771158,30.9387112,8.5,32.4654617c0.8604574,3.1732445,2.5209713,6.1744614,5.014431,8.6644402  C19.7794399,47.3903809,29.2442551,48.4790459,36.6367226,44.4209976z"/>
    <path xmlns="http://www.w3.org/2000/svg" d="M55.8574944,63.100174c-4.2872086,7.4469681-3.2679024,17.1136398,3.1020927,23.474884  c2.2940254,2.2922363,5.0209694,3.880127,7.9149857,4.7891769c1.6449127-2.858284,2.5996017-6.1639252,2.5978088-9.6987228  C69.4694366,72.9555359,63.745388,65.5863647,55.8574944,63.100174z"/>
    <path xmlns="http://www.w3.org/2000/svg" d="M63.6276436,55.5768967c2.5443764,7.7994499,9.8681145,13.438858,18.5163231,13.4329529  c3.2794952-0.0010529,6.3647232-0.8215637,9.0758514-2.254921c-0.9208527-2.8249702-2.486496-5.485714-4.7325592-7.7296715  C80.2964554,52.8389931,70.9795303,51.6921387,63.6276436,55.5768967z"/>
    <path xmlns="http://www.w3.org/2000/svg" d="M30.5274048,81.6813278c0.0012646,3.5291061,0.9556408,6.8292618,2.5986557,9.6833267  c2.8991814-0.9107361,5.6306572-2.5032654,7.9271049-4.8024521c6.3580856-6.3627243,7.3740196-16.0220184,3.0891266-23.4626579  C36.2468147,65.587204,30.5213947,72.9648132,30.5274048,81.6813278z"/>
    <path xmlns="http://www.w3.org/2000/svg" d="M36.3721466,55.576683c-7.3567352-3.8893929-16.6797752-2.7372704-22.8689957,3.4578514  c-2.241004,2.242691-3.8027496,4.9006958-4.72192,7.7218742c2.7157688,1.4356766,5.8073206,2.2557602,9.0932493,2.2534409  C26.5151005,69.006897,33.8301964,63.3696022,36.3721466,55.576683z"/>
    <path xmlns="http://www.w3.org/2000/svg" d="M69.4723816,17.3963432c-0.0010529-3.1555357-0.7696991-6.1255512-2.1030197-8.7609978  c-3.0833282,0.8789034-5.9938965,2.5245552-8.4208412,4.9538212c-6.0945625,6.0989876-7.2872696,15.2284966-3.6074257,22.5278873  C63.4990463,33.7925644,69.4770203,26.2994328,69.4723816,17.3963432z"/>
    <path xmlns="http://www.w3.org/2000/svg" d="M63.3639107,44.4203644c7.3991051,4.060791,16.8699303,2.9689598,23.1346245-3.3035316  c2.4859772-2.4876633,4.1424866-5.4840279,5.0014648-8.6517944c-2.7815399-1.5288563-5.9742889-2.4018574-9.3726883-2.4001713  C73.1491699,30.0682411,65.6136627,36.1560555,63.3639107,44.4203644z"/>
  </g>
  <g id="SvgjsG6059" featurekey="Ua4uQk-0" transform="matrix(3.047851137287821,0,0,3.047851137287821,-2.133495214770005,102.74916012135876)" fill="#111111">
    <path d="M6.18 9.42 c2.36 0 5.66 1.78 5 6.48 l-7.26 0 c0.36 1.08 1.3 1.64 2.56 1.64 c1.28 0 1.68 -0.28 2.4 -0.58 l1.74 1.68 c-0.92 0.9 -2.16 1.56 -4.26 1.56 c-2.58 0 -5.66 -1.78 -5.66 -5.36 c0 -3.64 3.12 -5.42 5.48 -5.42 z M6.18 12.120000000000001 c-0.9 0 -1.82 0.52 -2.22 1.56 l4.42 0 c-0.32 -1.04 -1.3 -1.56 -2.2 -1.56 z M19.36 9.44 c1.94 0 3.92 1.3 3.92 4.6 l0 5.96 l-3.16 0 l0 -5.74 c0 -1.58 -0.54 -2.08 -1.54 -2.08 c-1.42 0 -2.24 1.38 -2.44 1.98 l0 5.84 l-3.16 0 l0 -10.4 l3.16 0 l0 1.8 c0.2 -0.5 1.26 -1.96 3.22 -1.96 z M30.259999999999998 17.36 c0.56 0 0.96 -0.08 1.4 -0.2 l0 2.62 c-0.44 0.2 -1.16 0.34 -2.22 0.34 c-1.74 0 -3.2 -0.58 -3.2 -3.78 l0 -4.14 l-1.46 0 l0 -2.6 l1.46 0 l0 -2.44 l3.16 0 l0 2.44 l2.22 0 l0 2.6 l-2.22 0 l0 4.14 c0 0.46 0.12 1.02 0.86 1.02 z M38.5 9.42 c2.36 0 5.66 1.78 5 6.48 l-7.26 0 c0.36 1.08 1.3 1.64 2.56 1.64 c1.28 0 1.68 -0.28 2.4 -0.58 l1.74 1.68 c-0.92 0.9 -2.16 1.56 -4.26 1.56 c-2.58 0 -5.66 -1.78 -5.66 -5.36 c0 -3.64 3.12 -5.42 5.48 -5.42 z M38.5 12.120000000000001 c-0.9 0 -1.82 0.52 -2.22 1.56 l4.42 0 c-0.32 -1.04 -1.3 -1.56 -2.2 -1.56 z M51.980000000000004 9.44 c0.28 0 0.56 0 0.82 0.06 l0 3.02 c-0.24 -0.06 -0.52 -0.06 -0.72 -0.06 c-1.92 0 -3.46 1.38 -3.62 3.3 l0 4.24 l-3.16 0 l0 -10.4 l3.16 0 l0 2.54 c0.48 -1.56 1.68 -2.7 3.52 -2.7 z M59.28000000000001 8.26 c-0.9 0 -0.88 0.82 -0.88 1.02 l0 0.32 l2.16 0 l0 2.6 l-2.16 0 l0 7.8 l-3.18 0 l0 -7.8 l-1.42 0 l0 -2.6 l1.42 0 l0 -0.32 c0 -3.22 2.42 -3.62 3.68 -3.62 c1 0 1.98 0.22 2.72 0.7 l-1.06 2.18 c-0.58 -0.22 -0.8 -0.28 -1.28 -0.28 z M66.32000000000001 5.859999999999999 l0 2.66 l-3.16 0 l0 -2.66 l3.16 0 z M66.32000000000001 9.6 l0 10.4 l-3.16 0 l0 -10.4 l3.16 0 z"/>
  </g>
</svg>
